<svg width="40" height="40" viewBox="0 0 40 40" fill="none" xmlns="http://www.w3.org/2000/svg">
<path fill-rule="evenodd" clip-rule="evenodd" d="M6.9257 4.53649L22.0031 20.0005L6.9257 35.4646C6.85299 35.3888 6.78491 35.3083 6.72201 35.2233C6.25 34.5854 6.25 33.4894 6.25 31.2973V8.70381C6.25 6.5117 6.25 5.41564 6.72202 4.77779C6.78491 4.69279 6.85299 4.61226 6.9257 4.53649ZM8.77949 3.75195L23.3125 18.6576L27.8983 13.9543L12.3394 5.32754C10.5347 4.32696 9.55384 3.78309 8.77949 3.75195ZM29.5981 14.8967L24.6219 20.0005L29.5981 25.1044L32.7138 23.3768L32.7139 23.3768C34.6907 22.2807 35.6791 21.7327 36.0183 21.0212C36.3272 20.3731 36.3272 19.628 36.0183 18.9798C35.6791 18.2684 34.6907 17.7203 32.7138 16.6243L29.5981 14.8967ZM27.8983 26.0468L23.3125 21.3435L8.77949 36.2491C9.55383 36.218 10.5347 35.6741 12.3393 34.6735L12.3394 34.6735L27.8983 26.0468Z" fill="white"/>
</svg>
