<svg width="162" height="162" viewBox="0 0 162 162" fill="none" xmlns="http://www.w3.org/2000/svg">
<g filter="url(#filter0_d)">
<rect x="17" y="11" width="128" height="128" rx="28.5" fill="#282828"/>
</g>
<path fill-rule="evenodd" clip-rule="evenodd" d="M45 75.0527C45 94.8822 61.1177 111 81.0527 111C100.882 111 117 94.8822 117 75.0527C117 55.1177 100.882 39 81.0527 39C61.1177 39 45 55.1177 45 75.0527ZM103.5 75C103.5 87.4264 93.4264 97.5 81 97.5C68.5736 97.5 58.5 87.4264 58.5 75C58.5 62.5736 68.5736 52.5 81 52.5C93.4264 52.5 103.5 62.5736 103.5 75Z" fill="white"/>
<defs>
<filter id="filter0_d" x="0" y="0" width="162" height="162" filterUnits="userSpaceOnUse" color-interpolation-filters="sRGB">
<feFlood flood-opacity="0" result="BackgroundImageFix"/>
<feColorMatrix in="SourceAlpha" type="matrix" values="0 0 0 0 0 0 0 0 0 0 0 0 0 0 0 0 0 0 127 0"/>
<feOffset dy="6"/>
<feGaussianBlur stdDeviation="8.5"/>
<feColorMatrix type="matrix" values="0 0 0 0 0 0 0 0 0 0 0 0 0 0 0 0 0 0 0.154638 0"/>
<feBlend mode="normal" in2="BackgroundImageFix" result="effect1_dropShadow"/>
<feBlend mode="normal" in="SourceGraphic" in2="effect1_dropShadow" result="shape"/>
</filter>
</defs>
</svg>
